<svg width="114" height="30" fill="none" xmlns="http://www.w3.org/2000/svg"><rect x=".001" y="14" width="32" height="1.543" rx=".772" fill="#E3B873"/><rect x="82.001" y="14" width="32" height="1.543" rx=".772" fill="#E3B873"/><path d="M62.426 9.56l-4.845-1.454a3.426 3.426 0 00-1.108-.133v-.012h-5.89L40.14 4.49l.031 14.674 2.998 1.499 1.775-4.34 2.593 1.038.673-1.68.974.973-.909.909a1.695 1.695 0 001.14 2.89 1.693 1.693 0 001.63 1.63 1.693 1.693 0 001.63 1.63 1.695 1.695 0 001.69 1.636c.446 0 .883-.181 1.199-.497l.909-.909.365.365a1.694 1.694 0 002.889-1.139 1.693 1.693 0 001.63-1.63 1.693 1.693 0 001.63-1.63 1.695 1.695 0 001.637-1.69c0-.077-.013-.154-.023-.23l.78-.78.63 1.26 3.413-1.706 2.063 3.938 2.374-1.583V5.075L62.426 9.56zm-19.82 9.607l-1.349-.675-.027-12.494 5.954 1.979-4.578 11.19zm4.326-3.218l-1.577-.63 2.863-6.999 1.558.518-2.844 7.11zm1.933 2.814c0-.16.064-.317.178-.431l.956-.955a.61.61 0 01.862.862l-.956.955a.61.61 0 01-1.04-.43zm1.63 1.63c0-.16.065-.317.178-.43l.956-.956a.61.61 0 01.862.862l-.956.955a.61.61 0 01-1.04-.43zm1.63 1.63c0-.16.065-.317.178-.43l.956-.956a.61.61 0 01.862.862l-.956.956a.61.61 0 01-1.04-.43zm3.626 1.106l-.955.956a.61.61 0 01-.862-.862l.955-.956a.61.61 0 01.862.862zm7.177-4.3a.613.613 0 01-.431-.178l-4.553-4.554-.769.769 4.553 4.553a.61.61 0 01-.862.862l-4.553-4.554-.768.769 4.553 4.553a.61.61 0 01-.862.862l-4.553-4.553-.768.768 4.553 4.553a.61.61 0 01-.862.862l-.613-.613c.011-.076.023-.152.023-.23 0-.914-.73-1.657-1.636-1.69a1.692 1.692 0 00-1.63-1.63 1.692 1.692 0 00-1.63-1.63 1.695 1.695 0 00-1.69-1.636c-.078 0-.154.012-.23.023l-1.552-1.552 2.215-5.535h3.211l-1.995 1.995a1.698 1.698 0 002.398 2.398l1.44-1.44a.836.836 0 011.12-.023l1.27 1.164c.422.387.891.709 1.393.96l3.658 3.687a.61.61 0 01-.43 1.04zm1.152-1.855l-2.233-2.251c.2.019.4.03.603.03v-1.087a5.031 5.031 0 01-3.408-1.325l-1.27-1.164c-.718-.659-1.935-.633-2.623.057l-1.44 1.44a.61.61 0 01-.863-.862l2.072-2.072a2.38 2.38 0 012.35-.592l4.8 1.44 2.8 5.598-.788.788zm2.417.039l-3.295-6.59 2.406-.944 3.312 6.322-2.423 1.212zm6.278 1.525l-.886.59L66.626 9.08l6.149-2.411v11.87z" fill="#E3B873"/><circle cx="59.667" cy="1.701" r=".486" fill="#E3B873"/><circle cx="47.41" cy="24.631" r=".486" fill="#E3B873"/><circle cx="49.468" cy="26.319" r=".486" fill="#E3B873"/><circle cx="51.817" cy="27.558" r=".486" fill="#E3B873"/><circle cx="54.365" cy="28.35" r=".486" fill="#E3B873"/><circle cx="62.214" cy="2.474" r=".486" fill="#E3B873"/><circle cx="64.563" cy="3.729" r=".486" fill="#E3B873"/><path d="M66.83 3.027v2.802h-2.833M45.01 24.314v-2.267h2.264" stroke="#E3B873" stroke-linecap="round" stroke-linejoin="round"/><path d="M47.8 5.01c1.536-1.336 2.512-1.95 4.352-2.669 1.951-.762 3.272-.94 5.392-.94m10.861 21.097c-1.142 1.78-3.267 3.519-4.996 4.473-1.834 1.013-3.799 1.583-6.416 1.72" stroke="#E3B873" stroke-linecap="round"/></svg>