<svg width="114" height="29" fill="none" xmlns="http://www.w3.org/2000/svg"><rect y="13.812" width="32" height="1.543" rx=".772" fill="#E3B873"/><rect x="82.001" y="13.812" width="32" height="1.543" rx=".772" fill="#E3B873"/><path d="M73.851 9.766L49.731.829a.595.595 0 00-.766.353l-2.67 7.269a.596.596 0 00.353.764l2.797 1.027-.616 1.678a.596.596 0 00.353.765l5.593 2.053-.41 1.119a2.354 2.354 0 00.848 2.746v3.04h-8.016a2.987 2.987 0 00-2.13-1.727v-1.251a.596.596 0 00-.596-.596H42.07a.596.596 0 00-.595.596v9.532c0 .329.266.595.595.595h2.402c.33 0 .596-.266.596-.596v-1.25a2.987 2.987 0 002.13-1.728h8.016v.596a1.787 1.787 0 103.575 0v-6.6a2.36 2.36 0 001.168-1.302l.411-1.119L65.4 18.64a.593.593 0 00.765-.354l.223-.608a3.571 3.571 0 003.92-4.97l3.611-1.855a.596.596 0 00-.065-1.09l-.003.003zm-17.446 9.38l.493.179c.224.08.46.127.698.137v2.181h-1.191v-2.497zm-12.53 8.455h-1.21v-8.34h1.21v8.34zm2.384-3.575a1.791 1.791 0 01-1.192 1.686V21.15a1.79 1.79 0 011.192 1.685v1.191zm1.21-1.191h10.127v1.191H47.47v-1.191zM57 26.409a.596.596 0 01-.596-.595v-.596h1.191v.596a.596.596 0 01-.595.595zm2.248-10.026l-.411 1.119a1.192 1.192 0 01-1.529.707l-1.12-.41a1.192 1.192 0 01-.708-1.53l.41-1.118 3.02 1.109.338.123zm6.003.935l-15.1-5.544.412-1.12 8.947 3.287a.6.6 0 00.614-.126l1.672-1.574 4.687 1.722-1.232 3.355zm4.028-2.328a2.392 2.392 0 01-2.473 1.55l.92-2.508 1.504-.775c.235.55.253 1.17.05 1.733zm-2.01-2.06a.534.534 0 00-.094.017l-5.312-1.95a.596.596 0 00-.614.124l-1.673 1.574-11.958-4.39 2.258-6.15 22.29 8.258-4.898 2.517z" fill="#E3B873"/><path d="M53.13 8.703l-.526 1.42m2.815-.58l-.525 1.42m2.747-.593l-.526 1.42" stroke="#E3B873" stroke-linecap="round"/></svg>