<svg width="114" height="28" fill="none" xmlns="http://www.w3.org/2000/svg"><rect x=".001" y="13" width="32" height="1.543" rx=".772" fill="#E3B873"/><rect x="82.001" y="13" width="32" height="1.543" rx=".772" fill="#E3B873"/><path d="M67.406 21.143a3.688 3.688 0 00-1.931-.665c-2.555-1.673-4.229-2.929-5.206-3.906l-3.002-3.001 1.822-2.04c.345.196.716.324 1.087.377.28.047.466.047.653.047.373 0 .466 0 .84.326a.752.752 0 00-.28.606c0 .234.093.514.28.7L63.3 15.22c.233.28.606.42.98.42.373 0 .746-.14.979-.467l3.312-3.312c.28-.233.42-.606.42-.98 0-.372-.14-.699-.42-.979L66.939 8.27a.921.921 0 00-.653-.28c-.233 0-.466.14-.653.28-.373-.327-.373-.42-.373-.793 0-.187 0-.42-.093-.7a3.265 3.265 0 00-.933-1.819l-1.68-1.68c-.979-.979-1.445-1.445-2.705-2.005-2.705-1.26-5.457-1.026-9.468.793-.233.094-.327.28-.28.513a.454.454 0 00.466.374h.607c2.052 0 3.125 0 4.99 1.865.817.817.841 2.07.109 2.991a.427.427 0 00-.248.134l-2.072 2.313-1.567-1.566c-1.721-1.722-2.932-3.35-3.864-5.164a3.694 3.694 0 00-1.08-2.44C46.65.295 45.53-.078 44.41.015c-.14.047-.28.14-.326.233a.424.424 0 000 .467l1.306 2.332c-.28.606-.933.98-1.586.933l-1.353-2.24c-.046-.14-.233-.232-.373-.232-.14-.047-.28.046-.373.186a3.674 3.674 0 00.98 5.084c.578.413 1.23.643 1.89.69l.022.01c1.819.933 3.451 2.145 5.177 3.871l1.706 1.667-9.915 11.067c-.373.373-.56.886-.56 1.4 0 .512.187.979.56 1.352l.653.653c.373.326.84.513 1.306.513.467 0 .98-.186 1.353-.56l9.904-11.085 2.876 2.876c.979.979 2.237 2.702 3.914 5.217a3.69 3.69 0 001.077 2.386c.7.7 1.633 1.073 2.612 1.073h.373c.14 0 .28-.094.373-.233a.424.424 0 000-.467l-1.352-2.285c.326-.607.933-.98 1.632-.933l1.306 2.239c.047.14.233.233.373.233.187-.047.327-.093.42-.233 1.12-1.68.653-3.919-.98-5.085zM56.77 4.072C55.278 2.626 54.159 2.16 52.9 2.02c2.658-.84 4.617-.793 6.576.093 1.12.466 1.493.84 2.472 1.82l1.68 1.678c.373.373.606.84.653 1.306.046.233.046.42.046.56 0 .513.047.886.606 1.446.187.186.467.28.7.28.28 0 .513-.094.653-.28l1.633 1.632c.093.094.14.187.14.327s-.047.233-.14.326l-3.312 3.312a.451.451 0 01-.653 0l-1.633-1.633c.187-.14.28-.373.234-.652a1.03 1.03 0 00-.28-.7c-.56-.56-.933-.607-1.446-.607-.14 0-.327 0-.56-.046-.513-.047-.933-.28-1.306-.653l-2.005-2.006c1.026-1.26.932-3.032-.187-4.151zm-14.646-1.12l.98 1.68c.093.14.233.233.373.233h.233c1.073.047 2.052-.513 2.519-1.446l.093-.233a.35.35 0 000-.42L45.297.994c.56.093 1.073.373 1.492.793.481.52.79 1.18.807 1.887a.48.48 0 00-.014.118c0 .216-.026.427-.074.63a2.86 2.86 0 01-1.185 1.656 2.822 2.822 0 01-3.125-.047 2.84 2.84 0 01-1.073-3.078zm8.302 7.743c-1.399-1.446-2.798-2.565-4.29-3.451a5.57 5.57 0 00.745-.373 3.674 3.674 0 001.446-1.82c.887 1.493 2.006 2.892 3.405 4.292l1.602 1.602-1.256 1.402-1.652-1.652zm-6.203 16.046c-.373.373-.98.42-1.353.046l-.653-.606a.92.92 0 01-.28-.653c0-.28.094-.513.327-.746l.264-.296.669.669c.093.093.186.14.326.14s.233-.047.327-.14a.451.451 0 000-.653l-.706-.706.617-.69.742.743c.093.093.186.14.326.14s.233-.047.327-.14a.451.451 0 000-.653l-.779-.779L56.376 8.994l1.959 1.96-1.925 2.153a.479.479 0 00-.152.107l-1.866 2.099a.479.479 0 00-.114.178l-10.054 11.25zm11.195-11.1l1.276-1.43 3.014 3.014c.84.887 2.286 2.006 4.385 3.405-.28.094-.56.234-.84.42-.578.362-.988.864-1.274 1.42l-.012.023a4.465 4.465 0 00-.158.345l-.005.015c-.015.036-.03.073-.043.11-.265-.39-.52-.756-.765-1.101l.625-.625a.451.451 0 000-.653.451.451 0 00-.653 0l-.52.52a39.845 39.845 0 00-.562-.745l.429-.428a.451.451 0 000-.653.45.45 0 00-.653 0l-.356.356a15.518 15.518 0 00-.95-1.056l-2.938-2.938zm12.5 9.327l-.98-1.679c-.093-.14-.233-.233-.373-.233h-.233c-1.073-.094-2.053.513-2.519 1.446l-.093.233a.35.35 0 000 .42l1.026 1.772a2.756 2.756 0 01-1.493-.793c-.472-.51-.776-1.155-.805-1.847a.484.484 0 00.012-.112 2.804 2.804 0 011.26-2.332c.466-.326.98-.466 1.539-.466.56 0 1.12.186 1.586.513.98.7 1.4 1.959 1.073 3.078z" fill="#E3B873"/></svg>