<svg width="113" height="113" fill="none" xmlns="http://www.w3.org/2000/svg"><g filter="url(#filter0_d_2_14139)"><circle cx="56.5" cy="46.442" r="36" fill="#E3B873"/></g><path d="M56.84 53.72a.68.68 0 00-.687.672v1.324a.68.68 0 00.687.671.678.678 0 00.686-.67v-1.325a.68.68 0 00-.686-.671z" fill="#fff" stroke="#fff" stroke-width=".1"/><path d="M73.558 44.443h0a13.125 13.125 0 00-2.926-5.883 13.654 13.654 0 00-5.22-3.716c-.33-1.336-1.02-2.714-2.373-3.751-1.319-1.01-2.646-1.205-2.705-1.213h0a.699.699 0 00-.547.157.664.664 0 00-.237.507v3.304h-2.225c-.589-1.914-2.41-3.312-4.562-3.312-2.198 0-4.053 1.46-4.6 3.439a13.677 13.677 0 00-8.194 4.23l.037.034-.037-.034a13.044 13.044 0 00-3.519 8.9c0 7.39 3.934 13.4 5.14 15.065a2.06 2.06 0 001.668.841h2.711c1.127 0 2.046-.894 2.046-1.995v-.802c.67.098 1.35.148 2.03.148h6.108v.654c0 1.101.919 1.995 2.046 1.995h2.977c.958 0 1.8-.662 2-1.577l.32-1.456c4.177-1.002 7.536-3.858 9.2-7.565h2.488c.752 0 1.366-.597 1.366-1.333v-5.3a1.31 1.31 0 00-.4-.944 1.374 1.374 0 00-.966-.39h0-1.625v-.003zm1.618 6.586h0v.042h-1.965c.336-1.044.543-2.14.603-3.269a.677.677 0 00-.65-.705.681.681 0 00-.722.635c-.267 5.023-3.756 9.317-8.62 10.767l.872-3.967a.671.671 0 00-.528-.796.687.687 0 00-.816.515l-1.517 6.901a.672.672 0 01-.657.517h-2.978a.664.664 0 01-.671-.653v-2.65a.68.68 0 00-.687-.671.678.678 0 00-.687.67v.655h-6.108c-.681 0-1.362-.056-2.03-.165V54.39a.679.679 0 00-.687-.67.68.68 0 00-.687.67v6.625c0 .359-.3.654-.672.654h-2.71a.665.665 0 01-.548-.274h0c-1.147-1.586-4.887-7.3-4.887-14.291 0-2.964 1.123-5.804 3.162-7.998l-.036-.034.036.034a12.285 12.285 0 017.018-3.75c.015.387.08.77.191 1.14h-.188c-.378 0-.686.3-.686.671a.68.68 0 00.686.672h9.512a.68.68 0 00.687-.672.68.68 0 00-.687-.67h-.188c.128-.423.195-.864.196-1.308h2.023v1.316a.68.68 0 00.687.671.68.68 0 00.687-.671v-5.074c.594.23 1.419.678 2.105 1.533.711.888 1.277 2.217 1.277 4.203a.68.68 0 00.687.672.68.68 0 00.687-.672c0-.237-.008-.487-.026-.745a12.265 12.265 0 013.929 3.004 11.793 11.793 0 012.629 5.284c.13.625.693 1.078 1.337 1.078h1.627v5.24zM52.763 31.878c1.87 0 3.39 1.483 3.39 3.303 0 .455-.098.903-.282 1.317h-6.215a3.235 3.235 0 01-.282-1.317c0-1.82 1.52-3.303 3.39-3.303z" fill="#fff" stroke="#fff" stroke-width=".1"/><path d="M64.412 44.883h0c.403-1.055 1.469-1.761 2.65-1.761 1.181 0 2.247.706 2.65 1.76 0 0 0 0 0 0l-.046.019a.617.617 0 01-.374.798l-4.88-.816zm0 0a.667.667 0 00.403.863m-.403-.863l.403.863m0 0a.692.692 0 00.884-.394l-.883.395zm4.254.043a.7.7 0 00.24-.043l-3.61-.394c.202-.53.749-.888 1.363-.888s1.161.359 1.364.888c.103.27.365.437.643.437zm-13.357 1.729c-.652-.442-1.492-.712-2.262-.925v-3.079c.595.078 1.098.25 1.455.462.37.222.568.479.568.707a.68.68 0 00.687.671.68.68 0 00.687-.671c0-.656-.374-1.242-.988-1.685-.605-.436-1.446-.737-2.409-.835v-.026a.68.68 0 00-.687-.671.68.68 0 00-.687.67v.027c-.962.098-1.804.399-2.408.835-.615.443-.989 1.03-.989 1.685 0 .928.472 1.558 1.136 2.009.651.442 1.491.712 2.261.925v3.079c-.595-.078-1.098-.25-1.454-.463-.371-.221-.569-.478-.569-.706a.68.68 0 00-.687-.671.68.68 0 00-.687.67c0 .656.374 1.243.989 1.686.604.436 1.446.737 2.408.835v.026a.68.68 0 00.687.671.68.68 0 00.687-.67v-.027c.963-.098 1.804-.399 2.409-.835.614-.443.988-1.03.988-1.685 0-.928-.471-1.559-1.135-2.009zm-3.636-4.004v2.697c-.747-.233-1.251-.454-1.57-.695-.323-.246-.453-.51-.453-.833 0-.228.198-.485.569-.706.356-.213.86-.385 1.454-.463zm2.829 6.72c-.357.212-.86.384-1.455.462v-2.697c.748.233 1.252.454 1.57.695.324.246.453.51.453.833 0 .228-.197.485-.568.706z" fill="#fff" stroke="#fff" stroke-width=".1"/><defs><filter id="filter0_d_2_14139" x=".5" y=".442" width="112" height="112" filterUnits="userSpaceOnUse" color-interpolation-filters="sRGB"><feFlood flood-opacity="0" result="BackgroundImageFix"/><feColorMatrix in="SourceAlpha" values="0 0 0 0 0 0 0 0 0 0 0 0 0 0 0 0 0 0 127 0" result="hardAlpha"/><feOffset dy="10"/><feGaussianBlur stdDeviation="10"/><feColorMatrix values="0 0 0 0 0.929412 0 0 0 0 0.752941 0 0 0 0 0.470588 0 0 0 0.2 0"/><feBlend in2="BackgroundImageFix" result="effect1_dropShadow_2_14139"/><feBlend in="SourceGraphic" in2="effect1_dropShadow_2_14139" result="shape"/></filter></defs></svg>