<svg width="33" height="33" fill="none" xmlns="http://www.w3.org/2000/svg"><path fill-rule="evenodd" clip-rule="evenodd" d="M3.25 1.382A.39.39 0 013.648 1h28.664a.39.39 0 01.398.382v27.622a.39.39 0 01-.398.382.39.39 0 01-.399-.382V1.764H3.648a.39.39 0 01-.398-.382z" fill="#fff" stroke="#fff" stroke-width=".5" stroke-linecap="round" stroke-linejoin="round"/><path d="M3.668 29.562h.125V5.68L5.42 7.304a.52.52 0 10.735-.735L3.641 4.056a.52.52 0 00-.736 0L.392 6.569a.52.52 0 10.735.735L2.753 5.68v23.883h.915z" fill="#fff" stroke="#fff" stroke-width=".25"/><path d="M2.752 29.831v.125H26.76l-1.634 1.626a.518.518 0 000 .736.524.524 0 00.738 0l2.527-2.514a.519.519 0 000-.735l-2.527-2.514a.523.523 0 00-.738 0 .518.518 0 000 .736l1.634 1.625H2.752v.915z" fill="#fff" stroke="#fff" stroke-width=".25"/><path fill-rule="evenodd" clip-rule="evenodd" d="M14.162 1.116a.395.395 0 010 .558l-4.74 4.74a.395.395 0 11-.558-.559l4.74-4.74a.395.395 0 01.558 0zm18.3 18.826a.395.395 0 010 .559l-4.344 4.344a.395.395 0 11-.559-.558l4.345-4.345a.395.395 0 01.558 0zM20.085 1.114a.395.395 0 01.004.558L9.819 12.073a.395.395 0 01-.561-.555l10.268-10.4a.395.395 0 01.56-.004zM32.594 13.36a.395.395 0 010 .558L22.588 23.923a.395.395 0 01-.558-.558l10.005-10.006a.395.395 0 01.559 0zM26.408 1.25a.395.395 0 01-.004.558L9.947 18.001a.395.395 0 11-.554-.563L25.85 1.245a.395.395 0 01.558.005zm6.186 5.922a.395.395 0 010 .558L16.006 24.318a.395.395 0 11-.559-.558L32.035 7.172a.395.395 0 01.559 0zm-.264-5.925a.395.395 0 010 .559L9.687 24.45a.395.395 0 11-.558-.558L31.772 1.247a.395.395 0 01.559 0z" fill="#fff" stroke="#fff" stroke-width=".5" stroke-linecap="round" stroke-linejoin="round"/></svg>