<svg width="729" height="777" fill="none" xmlns="http://www.w3.org/2000/svg"><g opacity=".05" clip-path="url(#clip0_1_12798)"><path d="M257.128 646.696H200.13v133.3h56.998v-133.3z" fill="#333"/><path d="M226.038 639.971H200.13v7.588h25.908v-7.588zm-10.881-4.311H200.13v4.311h15.027v-4.311z" fill="#333"/><path opacity=".06" d="M233.293 656.008h-9.327v6.898h9.327v-6.898z" fill="#fff"/><path opacity=".12" d="M233.293 673.08h-9.327v6.898h9.327v-6.898z" fill="#fff"/><path opacity=".19" d="M233.293 707.224h-9.327v6.898h9.327v-6.898z" fill="#fff"/><path opacity=".14" d="M233.293 741.368h-9.327v6.898h9.327v-6.898z" fill="#fff"/><path opacity=".1" d="M233.293 758.44h-9.327v6.898h9.327v-6.898z" fill="#fff"/><path d="M114.116 661.181h-78.07v71.392h78.07v-71.392z" fill="#333"/><path d="M101.853 654.801H48.482v30.695h53.371v-30.695zm17.962 51.388h-78.07v71.392h78.07v-71.392z" fill="#333"/><path d="M107.38 699.808H54.009v30.695h53.371v-30.695zm116.413-3.104h-78.069v82.257h78.069v-82.257z" fill="#333"/><path d="M211.53 689.462h-53.371v35.523h53.371v-35.523zm273.589 32.248h-78.07v79.496h78.07V721.71z" fill="#333"/><path d="M472.856 714.639h-53.371v34.317h53.371v-34.317zM315.853 557.542h-87.224v221.247h87.224V557.542z" fill="#333"/><path opacity=".46" d="M254.019 567.544h-21.072v3.967h21.072v-3.967z" fill="#E6E6E6"/><path opacity=".34" d="M282.863 567.544h-21.071v3.967h21.071v-3.967z" fill="#E6E6E6"/><path opacity=".52" d="M311.535 567.544h-21.072v3.967h21.072v-3.967z" fill="#E6E6E6"/><path opacity=".54" d="M254.019 576.684h-21.072v3.966h21.072v-3.966z" fill="#E6E6E6"/><path opacity=".3" d="M282.863 576.684h-21.071v3.966h21.071v-3.966z" fill="#E6E6E6"/><path opacity=".06" d="M311.535 576.684h-21.072v3.966h21.072v-3.966z" fill="#E6E6E6"/><path opacity=".15" d="M254.019 585.823h-21.072v3.967h21.072v-3.967z" fill="#E6E6E6"/><path opacity=".42" d="M282.863 585.823h-21.071v3.967h21.071v-3.967z" fill="#E6E6E6"/><path opacity=".48" d="M311.535 585.823h-21.072v3.967h21.072v-3.967z" fill="#E6E6E6"/><path opacity=".18" d="M254.019 594.963h-21.072v3.966h21.072v-3.966z" fill="#E6E6E6"/><path opacity=".28" d="M311.535 594.963h-21.072v3.966h21.072v-3.966z" fill="#E6E6E6"/><path opacity=".29" d="M254.019 604.102h-21.072v3.967h21.072v-3.967z" fill="#E6E6E6"/><path opacity=".28" d="M282.863 604.102h-21.071v3.967h21.071v-3.967z" fill="#E6E6E6"/><path opacity=".56" d="M311.535 604.102h-21.072v3.967h21.072v-3.967z" fill="#E6E6E6"/><path opacity=".41" d="M254.019 613.242h-21.072v3.966h21.072v-3.966z" fill="#E6E6E6"/><path opacity=".16" d="M282.863 613.242h-21.071v3.966h21.071v-3.966z" fill="#E6E6E6"/><path opacity=".4" d="M311.535 613.242h-21.072v3.966h21.072v-3.966z" fill="#E6E6E6"/><path opacity=".1" d="M254.019 622.382h-21.072v3.966h21.072v-3.966z" fill="#E6E6E6"/><path opacity=".17" d="M282.863 622.382h-21.071v3.966h21.071v-3.966z" fill="#E6E6E6"/><path opacity=".08" d="M311.535 622.382h-21.072v3.966h21.072v-3.966z" fill="#E6E6E6"/><path opacity=".49" d="M254.019 631.521h-21.072v3.966h21.072v-3.966z" fill="#E6E6E6"/><path opacity=".58" d="M282.863 631.521h-21.071v3.966h21.071v-3.966zm28.672 0h-21.072v3.966h21.072v-3.966z" fill="#E6E6E6"/><path opacity=".26" d="M254.019 640.661h-21.072v3.966h21.072v-3.966z" fill="#E6E6E6"/><path opacity=".37" d="M282.863 640.661h-21.071v3.966h21.071v-3.966z" fill="#E6E6E6"/><path opacity=".34" d="M311.535 640.661h-21.072v3.966h21.072v-3.966z" fill="#E6E6E6"/><path opacity=".55" d="M254.019 649.8h-21.072v3.966h21.072V649.8z" fill="#E6E6E6"/><path opacity=".12" d="M282.863 649.8h-21.071v3.966h21.071V649.8z" fill="#E6E6E6"/><path opacity=".6" d="M311.535 649.8h-21.072v3.966h21.072V649.8z" fill="#E6E6E6"/><path opacity=".02" d="M254.019 658.94h-21.072v3.966h21.072v-3.966z" fill="#E6E6E6"/><path opacity=".28" d="M282.863 658.94h-21.071v3.966h21.071v-3.966z" fill="#E6E6E6"/><path opacity=".21" d="M311.535 658.94h-21.072v3.966h21.072v-3.966z" fill="#E6E6E6"/><path opacity=".57" d="M254.019 668.079h-21.072v3.967h21.072v-3.967z" fill="#E6E6E6"/><path opacity=".38" d="M282.863 668.079h-21.071v3.967h21.071v-3.967z" fill="#E6E6E6"/><path opacity=".25" d="M311.535 668.079h-21.072v3.967h21.072v-3.967z" fill="#E6E6E6"/><path opacity=".15" d="M254.019 677.219h-21.072v3.966h21.072v-3.966z" fill="#E6E6E6"/><path opacity=".47" d="M282.863 677.219h-21.071v3.966h21.071v-3.966z" fill="#E6E6E6"/><path opacity=".3" d="M311.535 677.219h-21.072v3.966h21.072v-3.966z" fill="#E6E6E6"/><path opacity=".4" d="M254.019 686.358h-21.072v3.967h21.072v-3.967z" fill="#E6E6E6"/><path opacity=".39" d="M282.863 686.358h-21.071v3.967h21.071v-3.967z" fill="#E6E6E6"/><path opacity=".24" d="M311.535 686.358h-21.072v3.967h21.072v-3.967z" fill="#E6E6E6"/><path opacity=".46" d="M254.019 695.498h-21.072v3.966h21.072v-3.966z" fill="#E6E6E6"/><path opacity=".22" d="M282.863 695.498h-21.071v3.966h21.071v-3.966z" fill="#E6E6E6"/><path opacity=".11" d="M311.535 695.498h-21.072v3.966h21.072v-3.966zm-28.672 9.14h-21.071v3.966h21.071v-3.966z" fill="#E6E6E6"/><path opacity=".02" d="M311.535 704.638h-21.072v3.966h21.072v-3.966z" fill="#E6E6E6"/><path opacity=".27" d="M254.019 713.777h-21.072v3.967h21.072v-3.967z" fill="#E6E6E6"/><path opacity=".21" d="M282.863 713.777h-21.071v3.967h21.071v-3.967z" fill="#E6E6E6"/><path opacity=".49" d="M311.535 713.777h-21.072v3.967h21.072v-3.967z" fill="#E6E6E6"/><path opacity=".6" d="M254.019 722.917h-21.072v3.966h21.072v-3.966z" fill="#E6E6E6"/><path opacity=".31" d="M282.863 722.917h-21.071v3.966h21.071v-3.966z" fill="#E6E6E6"/><path opacity=".22" d="M311.535 722.917h-21.072v3.966h21.072v-3.966z" fill="#E6E6E6"/><path opacity=".54" d="M254.019 732.056h-21.072v3.967h21.072v-3.967z" fill="#E6E6E6"/><path opacity=".6" d="M282.863 732.056h-21.071v3.967h21.071v-3.967z" fill="#E6E6E6"/><path opacity=".08" d="M311.535 732.056h-21.072v3.967h21.072v-3.967z" fill="#E6E6E6"/><path opacity=".55" d="M282.863 741.196h-21.071v3.966h21.071v-3.966z" fill="#E6E6E6"/><path d="M311.535 741.196h-21.072v3.966h21.072v-3.966z" fill="#E6E6E6"/><path opacity=".6" d="M255.401 567.544h-1.382v177.618h1.382V567.544zm35.062 0h-1.382v177.618h1.382V567.544z" fill="#E6E6E6"/><path d="M359.378 557.542h-43.525v221.247h43.525V557.542z" fill="#4D4D4D"/><path opacity=".69" d="M352.988 567.544h-32.817v3.967h32.817v-3.967z" fill="#E6E6E6"/><path opacity=".79" d="M352.988 576.684h-32.817v3.966h32.817v-3.966z" fill="#E6E6E6"/><path opacity=".19" d="M352.988 585.823h-32.817v3.967h32.817v-3.967z" fill="#E6E6E6"/><path opacity=".88" d="M352.988 594.963h-32.817v3.966h32.817v-3.966z" fill="#E6E6E6"/><path opacity=".5" d="M352.988 604.102h-32.817v3.967h32.817v-3.967z" fill="#E6E6E6"/><path opacity=".25" d="M352.988 613.242h-32.817v3.966h32.817v-3.966z" fill="#E6E6E6"/><path opacity=".91" d="M352.988 622.382h-32.817v3.966h32.817v-3.966z" fill="#E6E6E6"/><path opacity=".02" d="M352.988 631.521h-32.817v3.966h32.817v-3.966z" fill="#E6E6E6"/><path opacity=".53" d="M352.988 640.661h-32.817v3.966h32.817v-3.966z" fill="#E6E6E6"/><path opacity=".65" d="M352.988 649.8h-32.817v3.966h32.817V649.8z" fill="#E6E6E6"/><path d="M352.988 658.94h-32.817v3.966h32.817v-3.966z" fill="#E6E6E6"/><path opacity=".8" d="M352.988 668.079h-32.817v3.967h32.817v-3.967z" fill="#E6E6E6"/><path opacity=".82" d="M352.988 677.219h-32.817v3.966h32.817v-3.966z" fill="#E6E6E6"/><path opacity=".75" d="M352.988 686.358h-32.817v3.967h32.817v-3.967z" fill="#E6E6E6"/><path opacity=".31" d="M352.988 695.498h-32.817v3.966h32.817v-3.966z" fill="#E6E6E6"/><path opacity=".22" d="M352.988 704.638h-32.817v3.966h32.817v-3.966z" fill="#E6E6E6"/><path opacity=".43" d="M352.988 713.777h-32.817v3.967h32.817v-3.967z" fill="#E6E6E6"/><path opacity=".68" d="M352.988 722.917h-32.817v3.966h32.817v-3.966z" fill="#E6E6E6"/><path opacity=".38" d="M352.988 732.056h-32.817v3.967h32.817v-3.967z" fill="#E6E6E6"/><path opacity=".84" d="M352.988 741.196h-32.817v3.966h32.817v-3.966z" fill="#E6E6E6"/><path d="M244.001 545.816v11.726h56.48v-11.726h-56.48zm12.609 7.933h-5.873v-3.967h5.873v3.967zm9.154 0h-5.7v-3.967h5.7v3.967zm9.327 0h-5.7v-3.967h5.7v3.967zm9.327 0h-5.873v-3.967h5.873v3.967zm9.327 0h-5.873v-3.967h5.873v3.967zm17.099-3.967h-1.554v3.967h1.554v-3.967z" fill="#333"/><path d="M300.481 545.816v11.726h26.599v-11.726h-26.599zm10.363 7.933h-5.7v-3.967h5.7v3.967zm12.263 0h-5.699v-3.967h5.699v3.967z" fill="#4D4D4D"/><path d="M322.935 549.782h-1.555v3.967h1.555v-3.967zm4.49 244.008H209.976l117.449-86.567v86.567z" fill="#333"/><path d="M152.287 510.637h-9.5v36.041h9.5v-36.041z" fill="#4D4D4D"/><path d="M142.96 510.637h-9.672v36.041h9.672v-36.041z" fill="#333"/><path d="M162.132 510.637h-9.672v36.041h9.672v-36.041zm27.981 60.701h-26.945v205.554h26.945V571.338z" fill="#666"/><path d="M131.561 571.338h-23.49v205.554h23.49V571.338z" fill="#333"/><path d="M163.168 571.338h-31.78v205.554h31.78V571.338z" fill="#4D4D4D"/><path opacity=".6" d="M114.807 577.373h-3.455v196.759h3.455V577.373zm6.736 0h-3.455v196.759h3.455V577.373zm6.736 0h-3.454v196.759h3.454V577.373z" fill="#E6E6E6"/><path d="M168.523 577.373h-3.455v196.759h3.455V577.373zm6.736 0h-3.455v196.759h3.455V577.373zm13.126 0h-3.454v196.759h3.454V577.373zm-6.39 0h-3.455v196.759h3.455V577.373z" fill="#E6E6E6"/><path opacity=".8" d="M135.36 774.132h23.836V577.373H135.36v196.759zm3.8-193.31h16.236v189.862H139.16V580.822z" fill="#E6E6E6"/><path opacity=".8" d="M142.269 767.407h10.191V583.926h-10.191v183.481zm3.455-179.17h3.281v174.859h-3.281V588.237z" fill="#E6E6E6"/><path opacity=".8" d="M147.624 588.237h-.691v174.859h.691V588.237z" fill="#E6E6E6"/><path d="M159.541 535.297h-23.835v36.041h23.835v-36.041z" fill="#4D4D4D"/><path d="M159.541 535.297h-23.835v36.041h23.835v-36.041z" fill="#4D4D4D"/><path d="M183.377 535.297h-23.836v36.041h23.836v-36.041z" fill="#666"/><path d="M135.706 535.297H111.87v36.041h23.836v-36.041z" fill="#333"/><path d="M161.959 510.637h-28.671l9.499 6.553h9.673l9.499-6.553z" fill="gray"/><path d="M674.42 497.359h-13.817v40.525h13.817v-40.525z" fill="#4D4D4D"/><path d="M660.43 497.359h-13.818v40.525h13.818v-40.525z" fill="#333"/><path d="M688.238 497.359H674.42v40.525h13.818v-40.525zM729 565.82h-39.035v231.593H729V565.82z" fill="#666"/><path d="M644.021 565.82h-33.853v231.593h33.853V565.82z" fill="#333"/><path d="M689.965 565.82h-45.943v231.593h45.943V565.82z" fill="#4D4D4D"/><path opacity=".4" d="M619.841 572.717h-5.009v221.591h5.009V572.717zm9.845 0h-5.009v221.591h5.009V572.717zm9.845 0h-5.009v221.591h5.009V572.717z" fill="#E6E6E6"/><path d="M697.738 572.717h-5.009v221.591h5.009V572.717zm9.845 0h-5.009v221.591h5.009V572.717zm18.826 0H721.4v221.591h5.009V572.717zm-9.154 0h-5.009v221.591h5.009V572.717zm-67.361 221.591h34.544V572.717h-34.544v221.591zm5.354-217.797h23.49v214.003h-23.49V576.511z" fill="#E6E6E6"/><path d="M659.566 786.893h14.854v-206.76h-14.854v206.76zm5.182-201.932h4.663v197.104h-4.663V584.961z" fill="#E6E6E6"/><path d="M667.512 584.961h-.864v197.104h.864V584.961z" fill="#E6E6E6"/><path d="M684.784 525.295H650.24v40.525h34.544v-40.525z" fill="#4D4D4D"/><path d="M684.784 525.295H650.24v40.525h34.544v-40.525z" fill="#4D4D4D"/><path d="M719.328 525.295h-34.544v40.525h34.544v-40.525z" fill="#666"/><path d="M650.412 525.295h-34.544v40.525h34.544v-40.525z" fill="#333"/><path d="M688.411 497.359h-41.799l13.991 7.415h13.817l13.991-7.415z" fill="gray"/><path d="M574.761 597.894h-94.478v31.384h94.478v-31.384z" fill="#E6E6E6"/><path d="M517.418 597.894h-37.135v31.384h37.135v-31.384z" fill="#B3B3B3"/><path d="M517.418 629.451h-73.407v152.441h73.407V629.451z" fill="#333"/><path d="M632.104 629.451H517.418v152.441h114.686V629.451z" fill="#4D4D4D"/><path d="M508.436 613.931h-56.479v15.52h56.479v-15.52z" fill="#333"/><path d="M615.005 613.931h-80.661v15.52h80.661v-15.52z" fill="#4D4D4D"/><path d="M549.716 585.995h-32.298v11.898h32.298v-11.898z" fill="#E6E6E6"/><path d="M533.481 573.924h-16.063v11.899h16.063v-11.899z" fill="#4D4D4D"/><path d="M517.245 573.924h-16.063v11.899h16.063v-11.899z" fill="#333"/><path d="M517.418 585.995h-24.699v11.898h24.699v-11.898z" fill="#B3B3B3"/><path d="M516.381 573.924l1.037-27.591.863 27.591h-1.9z" fill="#333"/><path opacity=".12" d="M467.156 635.659h-6.045v6.035h6.045v-6.035z" fill="#fff"/><path opacity=".25" d="M475.447 635.659h-6.046v6.035h6.046v-6.035z" fill="#fff"/><path opacity=".36" d="M483.737 635.659h-6.045v6.035h6.045v-6.035z" fill="#fff"/><path opacity=".12" d="M492.028 635.659h-6.046v6.035h6.046v-6.035z" fill="#fff"/><path opacity=".14" d="M500.318 635.659h-6.045v6.035h6.045v-6.035z" fill="#fff"/><path opacity=".28" d="M467.156 643.591h-6.045v6.036h6.045v-6.036z" fill="#fff"/><path opacity=".4" d="M475.447 643.591h-6.046v6.036h6.046v-6.036z" fill="#fff"/><path opacity=".16" d="M483.737 643.591h-6.045v6.036h6.045v-6.036z" fill="#fff"/><path opacity=".17" d="M500.318 643.591h-6.045v6.036h6.045v-6.036z" fill="#fff"/><path opacity=".27" d="M467.156 651.524h-6.045v6.035h6.045v-6.035z" fill="#fff"/><path opacity=".45" d="M475.447 651.524h-6.046v6.035h6.046v-6.035zm8.29 0h-6.045v6.035h6.045v-6.035z" fill="#fff"/><path opacity=".48" d="M492.028 651.524h-6.046v6.035h6.046v-6.035z" fill="#fff"/><path opacity=".25" d="M500.318 651.524h-6.045v6.035h6.045v-6.035z" fill="#fff"/><path opacity=".28" d="M467.156 659.456h-6.045v6.036h6.045v-6.036z" fill="#fff"/><path opacity=".13" d="M475.447 659.456h-6.046v6.036h6.046v-6.036z" fill="#fff"/><path opacity=".07" d="M483.737 659.456h-6.045v6.036h6.045v-6.036z" fill="#fff"/><path opacity=".39" d="M492.028 659.456h-6.046v6.036h6.046v-6.036z" fill="#fff"/><path opacity=".47" d="M500.318 659.456h-6.045v6.036h6.045v-6.036z" fill="#fff"/><path opacity=".28" d="M467.156 667.388h-6.045v6.036h6.045v-6.036z" fill="#fff"/><path opacity=".2" d="M475.447 667.388h-6.046v6.036h6.046v-6.036z" fill="#fff"/><path opacity=".04" d="M483.737 667.388h-6.045v6.036h6.045v-6.036z" fill="#fff"/><path opacity=".43" d="M492.028 667.388h-6.046v6.036h6.046v-6.036z" fill="#fff"/><path opacity=".48" d="M500.318 667.388h-6.045v6.036h6.045v-6.036z" fill="#fff"/><path opacity=".28" d="M467.156 675.321h-6.045v6.036h6.045v-6.036z" fill="#fff"/><path opacity=".19" d="M475.447 675.321h-6.046v6.036h6.046v-6.036z" fill="#fff"/><path opacity=".01" d="M483.737 675.321h-6.045v6.036h6.045v-6.036z" fill="#fff"/><path opacity=".27" d="M492.028 675.321h-6.046v6.036h6.046v-6.036z" fill="#fff"/><path opacity=".24" d="M500.318 675.321h-6.045v6.036h6.045v-6.036z" fill="#fff"/><path opacity=".07" d="M467.156 683.426h-6.045v6.035h6.045v-6.035z" fill="#fff"/><path opacity=".25" d="M475.447 683.426h-6.046v6.035h6.046v-6.035z" fill="#fff"/><path opacity=".26" d="M483.737 683.426h-6.045v6.035h6.045v-6.035z" fill="#fff"/><path opacity=".39" d="M492.028 683.426h-6.046v6.035h6.046v-6.035z" fill="#fff"/><path opacity=".22" d="M500.318 683.426h-6.045v6.035h6.045v-6.035z" fill="#fff"/><path opacity=".15" d="M467.156 691.358h-6.045v6.036h6.045v-6.036z" fill="#fff"/><path opacity=".23" d="M475.447 691.358h-6.046v6.036h6.046v-6.036z" fill="#fff"/><path opacity=".05" d="M483.737 691.358h-6.045v6.036h6.045v-6.036z" fill="#fff"/><path opacity=".2" d="M492.028 691.358h-6.046v6.036h6.046v-6.036z" fill="#fff"/><path opacity=".31" d="M500.318 691.358h-6.045v6.036h6.045v-6.036z" fill="#fff"/><path opacity=".15" d="M467.156 699.291h-6.045v6.035h6.045v-6.035z" fill="#fff"/><path opacity=".33" d="M475.447 699.291h-6.046v6.035h6.046v-6.035z" fill="#fff"/><path opacity=".46" d="M483.737 699.291h-6.045v6.035h6.045v-6.035z" fill="#fff"/><path opacity=".25" d="M492.028 699.291h-6.046v6.035h6.046v-6.035z" fill="#fff"/><path opacity=".43" d="M500.318 699.291h-6.045v6.035h6.045v-6.035z" fill="#fff"/><path opacity=".4" d="M467.156 707.223h-6.045v6.036h6.045v-6.036z" fill="#fff"/><path opacity=".39" d="M475.447 707.223h-6.046v6.036h6.046v-6.036z" fill="#fff"/><path opacity=".01" d="M483.737 707.223h-6.045v6.036h6.045v-6.036z" fill="#fff"/><path opacity=".12" d="M492.028 707.223h-6.046v6.036h6.046v-6.036z" fill="#fff"/><path opacity=".07" d="M500.318 707.223h-6.045v6.036h6.045v-6.036zm-33.162 7.933h-6.045v6.035h6.045v-6.035z" fill="#fff"/><path opacity=".02" d="M475.447 715.156h-6.046v6.035h6.046v-6.035z" fill="#fff"/><path opacity=".12" d="M483.737 715.156h-6.045v6.035h6.045v-6.035z" fill="#fff"/><path opacity=".23" d="M492.028 715.156h-6.046v6.035h6.046v-6.035z" fill="#fff"/><path opacity=".26" d="M500.318 715.156h-6.045v6.035h6.045v-6.035z" fill="#fff"/><path opacity=".27" d="M467.156 723.088h-6.045v6.036h6.045v-6.036z" fill="#fff"/><path opacity=".38" d="M475.447 723.088h-6.046v6.036h6.046v-6.036z" fill="#fff"/><path opacity=".05" d="M483.737 723.088h-6.045v6.036h6.045v-6.036z" fill="#fff"/><path opacity=".45" d="M492.028 723.088h-6.046v6.036h6.046v-6.036z" fill="#fff"/><path opacity=".15" d="M500.318 723.088h-6.045v6.036h6.045v-6.036z" fill="#fff"/><path opacity=".06" d="M467.156 731.021h-6.045v6.035h6.045v-6.035z" fill="#fff"/><path opacity=".47" d="M475.447 731.021h-6.046v6.035h6.046v-6.035z" fill="#fff"/><path opacity=".15" d="M483.737 731.021h-6.045v6.035h6.045v-6.035z" fill="#fff"/><path opacity=".44" d="M492.028 731.021h-6.046v6.035h6.046v-6.035z" fill="#fff"/><path opacity=".14" d="M500.318 731.021h-6.045v6.035h6.045v-6.035z" fill="#fff"/><path opacity=".15" d="M467.156 738.953h-6.045v6.036h6.045v-6.036z" fill="#fff"/><path opacity=".43" d="M475.447 738.953h-6.046v6.036h6.046v-6.036z" fill="#fff"/><path opacity=".07" d="M483.737 738.953h-6.045v6.036h6.045v-6.036z" fill="#fff"/><path opacity=".47" d="M492.028 738.953h-6.046v6.036h6.046v-6.036z" fill="#fff"/><path opacity=".11" d="M500.318 738.953h-6.045v6.036h6.045v-6.036z" fill="#fff"/><path opacity=".07" d="M467.156 746.885h-6.045v6.036h6.045v-6.036z" fill="#fff"/><path opacity=".34" d="M475.447 746.885h-6.046v6.036h6.046v-6.036z" fill="#fff"/><path opacity=".5" d="M483.737 746.885h-6.045v6.036h6.045v-6.036z" fill="#fff"/><path opacity=".36" d="M492.028 746.885h-6.046v6.036h6.046v-6.036z" fill="#fff"/><path opacity=".34" d="M500.318 746.885h-6.045v6.036h6.045v-6.036z" fill="#fff"/><path opacity=".47" d="M467.156 754.818h-6.045v6.036h6.045v-6.036z" fill="#fff"/><path opacity=".41" d="M475.447 754.818h-6.046v6.036h6.046v-6.036z" fill="#fff"/><path opacity=".3" d="M483.737 754.818h-6.045v6.036h6.045v-6.036z" fill="#fff"/><path opacity=".33" d="M492.028 754.818h-6.046v6.036h6.046v-6.036z" fill="#fff"/><path opacity=".12" d="M500.318 754.818h-6.045v6.036h6.045v-6.036z" fill="#fff"/><path opacity=".24" d="M467.156 762.75h-6.045v6.036h6.045v-6.036z" fill="#fff"/><path opacity=".29" d="M475.447 762.75h-6.046v6.036h6.046v-6.036z" fill="#fff"/><path opacity=".27" d="M492.028 762.75h-6.046v6.036h6.046v-6.036z" fill="#fff"/><path opacity=".04" d="M500.318 762.75h-6.045v6.036h6.045v-6.036z" fill="#fff"/><path opacity=".11" d="M467.156 770.683h-6.045v6.035h6.045v-6.035z" fill="#fff"/><path opacity=".05" d="M475.447 770.683h-6.046v6.035h6.046v-6.035z" fill="#fff"/><path opacity=".04" d="M483.737 770.683h-6.045v6.035h6.045v-6.035z" fill="#fff"/><path opacity=".02" d="M492.028 770.683h-6.046v6.035h6.046v-6.035z" fill="#fff"/><path opacity=".3" d="M537.453 635.659h-6.045v6.035h6.045v-6.035z" fill="#fff"/><path opacity=".72" d="M545.398 635.659h-6.045v6.035h6.045v-6.035z" fill="#fff"/><path opacity=".7" d="M553.516 635.659h-6.045v6.035h6.045v-6.035z" fill="#fff"/><path opacity=".52" d="M561.634 635.659h-6.045v6.035h6.045v-6.035z" fill="#fff"/><path opacity=".2" d="M569.752 635.659h-6.046v6.035h6.046v-6.035z" fill="#fff"/><path opacity=".32" d="M577.697 635.659h-6.045v6.035h6.045v-6.035z" fill="#fff"/><path opacity=".13" d="M585.815 635.659h-6.045v6.035h6.045v-6.035z" fill="#fff"/><path opacity=".38" d="M593.933 635.659h-6.046v6.035h6.046v-6.035z" fill="#fff"/><path opacity=".61" d="M601.878 635.659h-6.045v6.035h6.045v-6.035z" fill="#fff"/><path d="M609.996 635.659h-6.046v6.035h6.046v-6.035z" fill="#fff"/><path opacity=".91" d="M618.113 635.659h-6.045v6.035h6.045v-6.035z" fill="#fff"/><path opacity=".66" d="M537.453 643.591h-6.045v6.036h6.045v-6.036z" fill="#fff"/><path opacity=".31" d="M545.398 643.591h-6.045v6.036h6.045v-6.036z" fill="#fff"/><path opacity=".95" d="M553.516 643.591h-6.045v6.036h6.045v-6.036z" fill="#fff"/><path opacity=".7" d="M561.634 643.591h-6.045v6.036h6.045v-6.036z" fill="#fff"/><path opacity=".12" d="M569.752 643.591h-6.046v6.036h6.046v-6.036z" fill="#fff"/><path opacity=".24" d="M577.697 643.591h-6.045v6.036h6.045v-6.036z" fill="#fff"/><path opacity=".66" d="M585.815 643.591h-6.045v6.036h6.045v-6.036z" fill="#fff"/><path opacity=".71" d="M593.933 643.591h-6.046v6.036h6.046v-6.036z" fill="#fff"/><path opacity=".42" d="M601.878 643.591h-6.045v6.036h6.045v-6.036z" fill="#fff"/><path opacity=".09" d="M609.996 643.591h-6.046v6.036h6.046v-6.036z" fill="#fff"/><path opacity=".32" d="M618.113 643.591h-6.045v6.036h6.045v-6.036z" fill="#fff"/><path opacity=".65" d="M537.453 651.524h-6.045v6.035h6.045v-6.035z" fill="#fff"/><path d="M545.398 651.524h-6.045v6.035h6.045v-6.035zm8.118 0h-6.045v6.035h6.045v-6.035z" fill="#fff"/><path opacity=".71" d="M561.634 651.524h-6.045v6.035h6.045v-6.035z" fill="#fff"/><path opacity=".2" d="M569.752 651.524h-6.046v6.035h6.046v-6.035z" fill="#fff"/><path opacity=".19" d="M577.697 651.524h-6.045v6.035h6.045v-6.035z" fill="#fff"/><path opacity=".62" d="M585.815 651.524h-6.045v6.035h6.045v-6.035z" fill="#fff"/><path opacity=".93" d="M593.933 651.524h-6.046v6.035h6.046v-6.035z" fill="#fff"/><path opacity=".56" d="M601.878 651.524h-6.045v6.035h6.045v-6.035z" fill="#fff"/><path opacity=".57" d="M609.996 651.524h-6.046v6.035h6.046v-6.035z" fill="#fff"/><path opacity=".52" d="M618.113 651.524h-6.045v6.035h6.045v-6.035z" fill="#fff"/><path opacity=".74" d="M537.453 659.456h-6.045v6.036h6.045v-6.036z" fill="#fff"/><path opacity=".56" d="M545.398 659.456h-6.045v6.036h6.045v-6.036z" fill="#fff"/><path opacity=".78" d="M553.516 659.456h-6.045v6.036h6.045v-6.036z" fill="#fff"/><path opacity=".41" d="M561.634 659.456h-6.045v6.036h6.045v-6.036z" fill="#fff"/><path opacity=".14" d="M569.752 659.456h-6.046v6.036h6.046v-6.036z" fill="#fff"/><path opacity=".28" d="M577.697 659.456h-6.045v6.036h6.045v-6.036z" fill="#fff"/><path opacity=".36" d="M585.815 659.456h-6.045v6.036h6.045v-6.036z" fill="#fff"/><path opacity=".14" d="M593.933 659.456h-6.046v6.036h6.046v-6.036z" fill="#fff"/><path opacity=".5" d="M601.878 659.456h-6.045v6.036h6.045v-6.036z" fill="#fff"/><path opacity=".98" d="M609.996 659.456h-6.046v6.036h6.046v-6.036z" fill="#fff"/><path opacity=".59" d="M618.113 659.456h-6.045v6.036h6.045v-6.036z" fill="#fff"/><path opacity=".07" d="M537.453 667.388h-6.045v6.036h6.045v-6.036z" fill="#fff"/><path opacity=".1" d="M545.398 667.388h-6.045v6.036h6.045v-6.036z" fill="#fff"/><path opacity=".88" d="M553.516 667.388h-6.045v6.036h6.045v-6.036z" fill="#fff"/><path opacity=".68" d="M561.634 667.388h-6.045v6.036h6.045v-6.036z" fill="#fff"/><path opacity=".81" d="M569.752 667.388h-6.046v6.036h6.046v-6.036z" fill="#fff"/><path opacity=".62" d="M577.697 667.388h-6.045v6.036h6.045v-6.036z" fill="#fff"/><path opacity=".97" d="M585.815 667.388h-6.045v6.036h6.045v-6.036z" fill="#fff"/><path opacity=".81" d="M593.933 667.388h-6.046v6.036h6.046v-6.036z" fill="#fff"/><path opacity=".79" d="M601.878 667.388h-6.045v6.036h6.045v-6.036z" fill="#fff"/><path opacity=".03" d="M609.996 667.388h-6.046v6.036h6.046v-6.036z" fill="#fff"/><path opacity=".95" d="M618.113 667.388h-6.045v6.036h6.045v-6.036z" fill="#fff"/><path opacity=".62" d="M537.453 675.321h-6.045v6.036h6.045v-6.036z" fill="#fff"/><path opacity=".22" d="M545.398 675.321h-6.045v6.036h6.045v-6.036z" fill="#fff"/><path opacity=".42" d="M553.516 675.321h-6.045v6.036h6.045v-6.036z" fill="#fff"/><path opacity=".56" d="M561.634 675.321h-6.045v6.036h6.045v-6.036z" fill="#fff"/><path opacity=".03" d="M569.752 675.321h-6.046v6.036h6.046v-6.036z" fill="#fff"/><path opacity=".64" d="M577.697 675.321h-6.045v6.036h6.045v-6.036z" fill="#fff"/><path opacity=".82" d="M585.815 675.321h-6.045v6.036h6.045v-6.036z" fill="#fff"/><path opacity=".52" d="M593.933 675.321h-6.046v6.036h6.046v-6.036z" fill="#fff"/><path opacity=".46" d="M601.878 675.321h-6.045v6.036h6.045v-6.036z" fill="#fff"/><path opacity=".27" d="M609.996 675.321h-6.046v6.036h6.046v-6.036z" fill="#fff"/><path opacity=".46" d="M618.113 675.321h-6.045v6.036h6.045v-6.036z" fill="#fff"/><path opacity=".66" d="M537.453 683.426h-6.045v6.035h6.045v-6.035z" fill="#fff"/><path opacity=".7" d="M545.398 683.426h-6.045v6.035h6.045v-6.035z" fill="#fff"/><path opacity=".94" d="M553.516 683.426h-6.045v6.035h6.045v-6.035z" fill="#fff"/><path opacity=".5" d="M561.634 683.426h-6.045v6.035h6.045v-6.035z" fill="#fff"/><path opacity=".12" d="M569.752 683.426h-6.046v6.035h6.046v-6.035z" fill="#fff"/><path opacity=".36" d="M577.697 683.426h-6.045v6.035h6.045v-6.035z" fill="#fff"/><path opacity=".51" d="M585.815 683.426h-6.045v6.035h6.045v-6.035z" fill="#fff"/><path opacity=".37" d="M593.933 683.426h-6.046v6.035h6.046v-6.035z" fill="#fff"/><path opacity=".66" d="M601.878 683.426h-6.045v6.035h6.045v-6.035z" fill="#fff"/><path opacity=".42" d="M609.996 683.426h-6.046v6.035h6.046v-6.035z" fill="#fff"/><path opacity=".5" d="M618.113 683.426h-6.045v6.035h6.045v-6.035z" fill="#fff"/><path opacity=".52" d="M537.453 691.358h-6.045v6.036h6.045v-6.036z" fill="#fff"/><path opacity=".61" d="M545.398 691.358h-6.045v6.036h6.045v-6.036z" fill="#fff"/><path opacity=".84" d="M553.516 691.358h-6.045v6.036h6.045v-6.036z" fill="#fff"/><path opacity=".89" d="M561.634 691.358h-6.045v6.036h6.045v-6.036z" fill="#fff"/><path opacity=".33" d="M569.752 691.358h-6.046v6.036h6.046v-6.036z" fill="#fff"/><path opacity=".25" d="M577.697 691.358h-6.045v6.036h6.045v-6.036z" fill="#fff"/><path opacity=".95" d="M585.815 691.358h-6.045v6.036h6.045v-6.036z" fill="#fff"/><path opacity=".09" d="M593.933 691.358h-6.046v6.036h6.046v-6.036z" fill="#fff"/><path opacity=".44" d="M601.878 691.358h-6.045v6.036h6.045v-6.036z" fill="#fff"/><path opacity=".51" d="M609.996 691.358h-6.046v6.036h6.046v-6.036z" fill="#fff"/><path opacity=".97" d="M618.113 691.358h-6.045v6.036h6.045v-6.036z" fill="#fff"/><path opacity=".26" d="M537.453 699.291h-6.045v6.035h6.045v-6.035z" fill="#fff"/><path opacity=".92" d="M545.398 699.291h-6.045v6.035h6.045v-6.035z" fill="#fff"/><path opacity=".33" d="M553.516 699.291h-6.045v6.035h6.045v-6.035z" fill="#fff"/><path opacity=".23" d="M561.634 699.291h-6.045v6.035h6.045v-6.035z" fill="#fff"/><path opacity=".42" d="M569.752 699.291h-6.046v6.035h6.046v-6.035z" fill="#fff"/><path opacity=".57" d="M577.697 699.291h-6.045v6.035h6.045v-6.035z" fill="#fff"/><path opacity=".73" d="M585.815 699.291h-6.045v6.035h6.045v-6.035z" fill="#fff"/><path opacity=".87" d="M593.933 699.291h-6.046v6.035h6.046v-6.035z" fill="#fff"/><path opacity=".22" d="M601.878 699.291h-6.045v6.035h6.045v-6.035z" fill="#fff"/><path opacity=".89" d="M609.996 699.291h-6.046v6.035h6.046v-6.035z" fill="#fff"/><path opacity=".73" d="M618.113 699.291h-6.045v6.035h6.045v-6.035z" fill="#fff"/><path opacity=".35" d="M537.453 707.223h-6.045v6.036h6.045v-6.036z" fill="#fff"/><path opacity=".81" d="M545.398 707.223h-6.045v6.036h6.045v-6.036z" fill="#fff"/><path opacity=".56" d="M553.516 707.223h-6.045v6.036h6.045v-6.036z" fill="#fff"/><path opacity=".81" d="M561.634 707.223h-6.045v6.036h6.045v-6.036z" fill="#fff"/><path opacity=".87" d="M569.752 707.223h-6.046v6.036h6.046v-6.036z" fill="#fff"/><path opacity=".39" d="M577.697 707.223h-6.045v6.036h6.045v-6.036z" fill="#fff"/><path opacity=".31" d="M585.815 707.223h-6.045v6.036h6.045v-6.036z" fill="#fff"/><path opacity=".98" d="M593.933 707.223h-6.046v6.036h6.046v-6.036z" fill="#fff"/><path opacity=".17" d="M601.878 707.223h-6.045v6.036h6.045v-6.036z" fill="#fff"/><path opacity=".06" d="M609.996 707.223h-6.046v6.036h6.046v-6.036z" fill="#fff"/><path opacity=".57" d="M618.113 707.223h-6.045v6.036h6.045v-6.036z" fill="#fff"/><path opacity=".67" d="M537.453 715.156h-6.045v6.035h6.045v-6.035z" fill="#fff"/><path opacity=".83" d="M545.398 715.156h-6.045v6.035h6.045v-6.035z" fill="#fff"/><path opacity=".99" d="M553.516 715.156h-6.045v6.035h6.045v-6.035z" fill="#fff"/><path opacity=".62" d="M561.634 715.156h-6.045v6.035h6.045v-6.035z" fill="#fff"/><path opacity=".87" d="M569.752 715.156h-6.046v6.035h6.046v-6.035z" fill="#fff"/><path opacity=".14" d="M577.697 715.156h-6.045v6.035h6.045v-6.035z" fill="#fff"/><path opacity=".12" d="M585.815 715.156h-6.045v6.035h6.045v-6.035z" fill="#fff"/><path opacity=".11" d="M593.933 715.156h-6.046v6.035h6.046v-6.035z" fill="#fff"/><path opacity=".39" d="M601.878 715.156h-6.045v6.035h6.045v-6.035z" fill="#fff"/><path opacity=".58" d="M609.996 715.156h-6.046v6.035h6.046v-6.035z" fill="#fff"/><path opacity=".54" d="M618.113 715.156h-6.045v6.035h6.045v-6.035z" fill="#fff"/><path opacity=".99" d="M537.453 723.088h-6.045v6.036h6.045v-6.036z" fill="#fff"/><path opacity=".28" d="M545.398 723.088h-6.045v6.036h6.045v-6.036z" fill="#fff"/><path opacity=".78" d="M553.516 723.088h-6.045v6.036h6.045v-6.036z" fill="#fff"/><path opacity=".65" d="M561.634 723.088h-6.045v6.036h6.045v-6.036z" fill="#fff"/><path opacity=".32" d="M569.752 723.088h-6.046v6.036h6.046v-6.036z" fill="#fff"/><path opacity=".55" d="M577.697 723.088h-6.045v6.036h6.045v-6.036z" fill="#fff"/><path opacity=".4" d="M585.815 723.088h-6.045v6.036h6.045v-6.036z" fill="#fff"/><path opacity=".22" d="M593.933 723.088h-6.046v6.036h6.046v-6.036z" fill="#fff"/><path opacity=".87" d="M601.878 723.088h-6.045v6.036h6.045v-6.036z" fill="#fff"/><path opacity=".02" d="M609.996 723.088h-6.046v6.036h6.046v-6.036z" fill="#fff"/><path opacity=".39" d="M618.113 723.088h-6.045v6.036h6.045v-6.036z" fill="#fff"/><path opacity=".89" d="M537.453 731.021h-6.045v6.035h6.045v-6.035z" fill="#fff"/><path opacity=".97" d="M545.398 731.021h-6.045v6.035h6.045v-6.035z" fill="#fff"/><path opacity=".79" d="M553.516 731.021h-6.045v6.035h6.045v-6.035z" fill="#fff"/><path opacity=".41" d="M561.634 731.021h-6.045v6.035h6.045v-6.035z" fill="#fff"/><path opacity=".13" d="M569.752 731.021h-6.046v6.035h6.046v-6.035z" fill="#fff"/><path opacity=".9" d="M577.697 731.021h-6.045v6.035h6.045v-6.035z" fill="#fff"/><path opacity=".98" d="M585.815 731.021h-6.045v6.035h6.045v-6.035z" fill="#fff"/><path opacity=".67" d="M593.933 731.021h-6.046v6.035h6.046v-6.035z" fill="#fff"/><path opacity=".65" d="M601.878 731.021h-6.045v6.035h6.045v-6.035z" fill="#fff"/><path opacity=".89" d="M609.996 731.021h-6.046v6.035h6.046v-6.035z" fill="#fff"/><path opacity=".98" d="M618.113 731.021h-6.045v6.035h6.045v-6.035z" fill="#fff"/><path opacity=".29" d="M537.453 738.953h-6.045v6.036h6.045v-6.036z" fill="#fff"/><path opacity=".74" d="M545.398 738.953h-6.045v6.036h6.045v-6.036z" fill="#fff"/><path opacity=".64" d="M553.516 738.953h-6.045v6.036h6.045v-6.036z" fill="#fff"/><path opacity=".65" d="M561.634 738.953h-6.045v6.036h6.045v-6.036z" fill="#fff"/><path opacity=".07" d="M569.752 738.953h-6.046v6.036h6.046v-6.036z" fill="#fff"/><path opacity=".16" d="M577.697 738.953h-6.045v6.036h6.045v-6.036z" fill="#fff"/><path opacity=".84" d="M585.815 738.953h-6.045v6.036h6.045v-6.036z" fill="#fff"/><path opacity=".88" d="M593.933 738.953h-6.046v6.036h6.046v-6.036z" fill="#fff"/><path opacity=".57" d="M601.878 738.953h-6.045v6.036h6.045v-6.036z" fill="#fff"/><path opacity=".31" d="M609.996 738.953h-6.046v6.036h6.046v-6.036z" fill="#fff"/><path opacity=".03" d="M618.113 738.953h-6.045v6.036h6.045v-6.036z" fill="#fff"/><path opacity=".3" d="M537.453 746.885h-6.045v6.036h6.045v-6.036z" fill="#fff"/><path opacity=".59" d="M545.398 746.885h-6.045v6.036h6.045v-6.036z" fill="#fff"/><path opacity=".93" d="M553.516 746.885h-6.045v6.036h6.045v-6.036z" fill="#fff"/><path opacity=".06" d="M561.634 746.885h-6.045v6.036h6.045v-6.036z" fill="#fff"/><path opacity=".74" d="M569.752 746.885h-6.046v6.036h6.046v-6.036z" fill="#fff"/><path opacity=".22" d="M577.697 746.885h-6.045v6.036h6.045v-6.036z" fill="#fff"/><path opacity=".51" d="M585.815 746.885h-6.045v6.036h6.045v-6.036z" fill="#fff"/><path opacity=".7" d="M593.933 746.885h-6.046v6.036h6.046v-6.036z" fill="#fff"/><path opacity=".47" d="M601.878 746.885h-6.045v6.036h6.045v-6.036z" fill="#fff"/><path opacity=".08" d="M609.996 746.885h-6.046v6.036h6.046v-6.036z" fill="#fff"/><path opacity=".93" d="M618.113 746.885h-6.045v6.036h6.045v-6.036z" fill="#fff"/><path opacity=".81" d="M537.453 754.818h-6.045v6.036h6.045v-6.036z" fill="#fff"/><path opacity=".9" d="M545.398 754.818h-6.045v6.036h6.045v-6.036z" fill="#fff"/><path opacity=".55" d="M553.516 754.818h-6.045v6.036h6.045v-6.036z" fill="#fff"/><path opacity=".14" d="M561.634 754.818h-6.045v6.036h6.045v-6.036z" fill="#fff"/><path opacity=".66" d="M569.752 754.818h-6.046v6.036h6.046v-6.036z" fill="#fff"/><path opacity=".92" d="M577.697 754.818h-6.045v6.036h6.045v-6.036z" fill="#fff"/><path opacity=".4" d="M585.815 754.818h-6.045v6.036h6.045v-6.036z" fill="#fff"/><path opacity=".6" d="M593.933 754.818h-6.046v6.036h6.046v-6.036z" fill="#fff"/><path opacity=".99" d="M601.878 754.818h-6.045v6.036h6.045v-6.036z" fill="#fff"/><path opacity=".68" d="M609.996 754.818h-6.046v6.036h6.046v-6.036z" fill="#fff"/><path opacity=".01" d="M618.113 754.818h-6.045v6.036h6.045v-6.036z" fill="#fff"/><path opacity=".82" d="M537.453 762.75h-6.045v6.036h6.045v-6.036z" fill="#fff"/><path opacity=".92" d="M545.398 762.75h-6.045v6.036h6.045v-6.036z" fill="#fff"/><path opacity=".29" d="M553.516 762.75h-6.045v6.036h6.045v-6.036z" fill="#fff"/><path opacity=".73" d="M561.634 762.75h-6.045v6.036h6.045v-6.036z" fill="#fff"/><path opacity=".42" d="M569.752 762.75h-6.046v6.036h6.046v-6.036z" fill="#fff"/><path opacity=".06" d="M577.697 762.75h-6.045v6.036h6.045v-6.036z" fill="#fff"/><path opacity=".7" d="M585.815 762.75h-6.045v6.036h6.045v-6.036z" fill="#fff"/><path opacity=".97" d="M593.933 762.75h-6.046v6.036h6.046v-6.036z" fill="#fff"/><path opacity=".51" d="M601.878 762.75h-6.045v6.036h6.045v-6.036z" fill="#fff"/><path opacity=".69" d="M609.996 762.75h-6.046v6.036h6.046v-6.036z" fill="#fff"/><path opacity=".49" d="M618.113 762.75h-6.045v6.036h6.045v-6.036z" fill="#fff"/><path opacity=".45" d="M537.453 770.683h-6.045v6.035h6.045v-6.035z" fill="#fff"/><path opacity=".46" d="M545.398 770.683h-6.045v6.035h6.045v-6.035z" fill="#fff"/><path opacity=".04" d="M553.516 770.683h-6.045v6.035h6.045v-6.035z" fill="#fff"/><path opacity=".56" d="M561.634 770.683h-6.045v6.035h6.045v-6.035z" fill="#fff"/><path opacity=".4" d="M569.752 770.683h-6.046v6.035h6.046v-6.035z" fill="#fff"/><path opacity=".59" d="M577.697 770.683h-6.045v6.035h6.045v-6.035z" fill="#fff"/><path opacity=".82" d="M585.815 770.683h-6.045v6.035h6.045v-6.035z" fill="#fff"/><path opacity=".99" d="M593.933 770.683h-6.046v6.035h6.046v-6.035z" fill="#fff"/><path opacity=".1" d="M601.878 770.683h-6.045v6.035h6.045v-6.035z" fill="#fff"/><path opacity=".87" d="M609.996 770.683h-6.046v6.035h6.046v-6.035z" fill="#fff"/><path d="M618.113 770.683h-6.045v6.035h6.045v-6.035z" fill="#fff"/><path d="M435.375 596.859h-56.997v178.308h56.997V596.859z" fill="#333"/><path d="M404.286 587.892h-25.908v10.002h25.908v-10.002zm-10.882-5.863h-15.026v5.863h15.026v-5.863z" fill="#333"/><path opacity=".25" d="M411.367 609.448h-9.327v9.312h9.327v-9.312z" fill="#fff"/><path opacity=".15" d="M411.367 632.383h-9.327v9.312h9.327v-9.312z" fill="#fff"/><path opacity=".19" d="M411.367 678.08h-9.327v9.312h9.327v-9.312z" fill="#fff"/><path opacity=".17" d="M411.367 700.843h-9.327v9.312h9.327v-9.312z" fill="#fff"/><path opacity=".22" d="M411.367 723.606h-9.327v9.312h9.327v-9.312z" fill="#fff"/><path d="M411.367 746.541h-9.327v9.312h9.327v-9.312z" fill="#fff"/><path d="M393.059 696.187h-53.371v15.692h53.371v-15.692z" fill="#333"/><path d="M419.658 696.187h-26.599v15.692h26.599v-15.692z" fill="#4D4D4D"/><path d="M339.688 696.187l16.582-7.932 36.789 7.932h-53.371z" fill="#333"/><path d="M356.27 688.255l36.789 7.932h26.599l-63.388-7.932z" fill="#4D4D4D"/><path d="M405.495 707.223h-78.07v71.392h78.07v-71.392z" fill="#333"/><path d="M431.403 707.223h-25.908v71.392h25.908v-71.392z" fill="#4D4D4D"/><path opacity=".81" d="M425.358 712.224h-13.991v5.174h13.991v-5.174z" fill="#fff"/><path opacity=".76" d="M425.358 721.709h-13.991v5.173h13.991v-5.173z" fill="#fff"/><path opacity=".32" d="M425.358 731.193h-13.991v5.174h13.991v-5.174z" fill="#fff"/><path opacity=".49" d="M425.358 740.85h-13.991v5.173h13.991v-5.173z" fill="#fff"/><path opacity=".99" d="M425.358 759.819h-13.991v5.173h13.991v-5.173z" fill="#fff"/><path opacity=".1" d="M353.852 712.224h-13.991v5.174h13.991v-5.174z" fill="#fff"/><path opacity=".04" d="M373.369 712.224h-13.991v5.174h13.991v-5.174z" fill="#fff"/><path opacity=".07" d="M393.059 712.224h-13.99v5.174h13.99v-5.174z" fill="#fff"/><path opacity=".06" d="M353.852 721.709h-13.991v5.173h13.991v-5.173z" fill="#fff"/><path opacity=".44" d="M373.369 721.709h-13.991v5.173h13.991v-5.173z" fill="#fff"/><path opacity=".24" d="M393.059 721.709h-13.99v5.173h13.99v-5.173z" fill="#fff"/><path opacity=".55" d="M353.852 731.193h-13.991v5.174h13.991v-5.174z" fill="#fff"/><path opacity=".02" d="M373.369 731.193h-13.991v5.174h13.991v-5.174z" fill="#fff"/><path opacity=".14" d="M393.059 731.193h-13.99v5.174h13.99v-5.174z" fill="#fff"/><path opacity=".43" d="M353.852 740.85h-13.991v5.173h13.991v-5.173z" fill="#fff"/><path opacity=".41" d="M373.369 740.85h-13.991v5.173h13.991v-5.173z" fill="#fff"/><path opacity=".46" d="M393.059 740.85h-13.99v5.173h13.99v-5.173z" fill="#fff"/><path opacity=".45" d="M353.852 750.335h-13.991v5.173h13.991v-5.173z" fill="#fff"/><path opacity=".33" d="M373.369 750.335h-13.991v5.173h13.991v-5.173z" fill="#fff"/><path opacity=".05" d="M393.059 750.335h-13.99v5.173h13.99v-5.173z" fill="#fff"/><path opacity=".27" d="M353.852 759.819h-13.991v5.174h13.991v-5.174z" fill="#fff"/><path opacity=".15" d="M373.369 759.819h-13.991v5.174h13.991v-5.174z" fill="#fff"/><path opacity=".7" d="M393.059 759.819h-13.99v5.174h13.99v-5.174z" fill="#fff"/><path d="M25.683 635.832H-22.68v148.819h48.362V635.832z" fill="#333"/><path d="M80.78 635.832H25.857v148.819H80.78V635.832zM25.683 648.42H-22.68v2.587h48.362v-2.587z" fill="#4D4D4D"/><path d="M80.78 648.42H25.857v2.587H80.78v-2.587z" fill="#333"/><path opacity=".32" d="M.638 653.939h-5.181v5.173H.638v-5.173z" fill="#fff"/><path opacity=".25" d="M7.72 653.939H2.538v5.173H7.72v-5.173z" fill="#fff"/><path opacity=".12" d="M21.883 653.939h-5.182v5.173h5.182v-5.173z" fill="#fff"/><path opacity=".22" d="M.638 661.009h-5.181v5.173H.638v-5.173z" fill="#fff"/><path opacity=".47" d="M7.72 661.009H2.538v5.173H7.72v-5.173z" fill="#fff"/><path opacity=".22" d="M14.802 661.009H9.62v5.173h5.182v-5.173z" fill="#fff"/><path opacity=".32" d="M21.883 661.009h-5.182v5.173h5.182v-5.173z" fill="#fff"/><path opacity=".18" d="M.638 668.079h-5.181v5.173H.638v-5.173z" fill="#fff"/><path opacity=".28" d="M7.72 668.079H2.538v5.173H7.72v-5.173z" fill="#fff"/><path opacity=".2" d="M21.883 668.079h-5.182v5.173h5.182v-5.173z" fill="#fff"/><path opacity=".33" d="M.638 675.149h-5.181v5.174H.638v-5.174z" fill="#fff"/><path opacity=".05" d="M7.72 675.149H2.538v5.174H7.72v-5.174z" fill="#fff"/><path opacity=".08" d="M14.802 675.149H9.62v5.174h5.182v-5.174zm-7.082 7.07H2.538v5.174H7.72v-5.174z" fill="#fff"/><path opacity=".02" d="M14.802 682.219H9.62v5.174h5.182v-5.174z" fill="#fff"/><path opacity=".05" d="M.638 689.29h-5.181v5.173H.638v-5.173z" fill="#fff"/><path opacity=".2" d="M7.72 689.29H2.538v5.173H7.72v-5.173z" fill="#fff"/><path opacity=".23" d="M14.802 689.29H9.62v5.173h5.182v-5.173z" fill="#fff"/><path opacity=".14" d="M.638 696.36h-5.181v5.173H.638v-5.173z" fill="#fff"/><path opacity=".24" d="M14.802 696.36H9.62v5.173h5.182v-5.173z" fill="#fff"/><path opacity=".23" d="M.638 703.43h-5.181v5.173H.638v-5.173z" fill="#fff"/><path opacity=".02" d="M7.72 703.43H2.538v5.173H7.72v-5.173z" fill="#fff"/><path opacity=".04" d="M14.802 703.43H9.62v5.173h5.182v-5.173z" fill="#fff"/><path opacity=".3" d="M21.883 703.43h-5.182v5.173h5.182v-5.173z" fill="#fff"/><path opacity=".4" d="M21.883 710.328h-5.182v5.173h5.182v-5.173z" fill="#fff"/><path opacity=".12" d="M.638 717.398h-5.181v5.174H.638v-5.174z" fill="#fff"/><path opacity=".19" d="M14.802 717.398H9.62v5.174h5.182v-5.174z" fill="#fff"/><path opacity=".43" d="M21.883 717.398h-5.182v5.174h5.182v-5.174z" fill="#fff"/><path opacity=".42" d="M7.72 724.468H2.538v5.174H7.72v-5.174z" fill="#fff"/><path opacity=".31" d="M21.883 724.468h-5.182v5.174h5.182v-5.174zM7.72 731.539H2.538v5.173H7.72v-5.173z" fill="#fff"/><path opacity=".33" d="M21.883 731.539h-5.182v5.173h5.182v-5.173z" fill="#fff"/><path opacity=".17" d="M7.72 738.609H2.538v5.173H7.72v-5.173z" fill="#fff"/><path opacity=".01" d="M14.802 738.609H9.62v5.173h5.182v-5.173z" fill="#fff"/><path opacity=".48" d="M21.883 738.609h-5.182v5.173h5.182v-5.173z" fill="#fff"/><path opacity=".28" d="M.638 745.679h-5.181v5.173H.638v-5.173z" fill="#fff"/><path opacity=".02" d="M7.72 745.679H2.538v5.173H7.72v-5.173z" fill="#fff"/><path opacity=".17" d="M14.802 745.679H9.62v5.173h5.182v-5.173z" fill="#fff"/><path opacity=".42" d="M21.883 745.679h-5.182v5.173h5.182v-5.173z" fill="#fff"/><path opacity=".11" d="M.638 752.749h-5.181v5.174H.638v-5.174z" fill="#fff"/><path opacity=".02" d="M7.72 752.749H2.538v5.174H7.72v-5.174z" fill="#fff"/><path opacity=".3" d="M21.883 752.749h-5.182v5.174h5.182v-5.174z" fill="#fff"/><path opacity=".19" d="M.638 759.82h-5.181v5.173H.638v-5.173z" fill="#fff"/><path opacity=".05" d="M7.72 759.82H2.538v5.173H7.72v-5.173z" fill="#fff"/><path opacity=".2" d="M21.883 759.82h-5.182v5.173h5.182v-5.173z" fill="#fff"/><path opacity=".27" d="M7.72 766.89H2.538v5.173H7.72v-5.173z" fill="#fff"/><path opacity=".13" d="M14.802 766.89H9.62v5.173h5.182v-5.173z" fill="#fff"/><path opacity=".46" d="M.638 773.96h-5.181v5.173H.638v-5.173z" fill="#fff"/><path opacity=".12" d="M7.72 773.96H2.538v5.173H7.72v-5.173z" fill="#fff"/><path opacity=".04" d="M14.802 773.96H9.62v5.173h5.182v-5.173z" fill="#fff"/><path opacity=".3" d="M21.883 773.96h-5.182v5.173h5.182v-5.173z" fill="#fff"/><path opacity=".08" d="M14.802 653.939H9.62v5.173h5.182v-5.173zm0 14.14H9.62v5.173h5.182v-5.173z" fill="#fff"/><path opacity=".01" d="M21.883 675.149h-5.182v5.174h5.182v-5.174z" fill="#fff"/><path opacity=".15" d="M.638 682.219h-5.181v5.174H.638v-5.174z" fill="#fff"/><path opacity=".12" d="M21.883 682.219h-5.182v5.174h5.182v-5.174z" fill="#fff"/><path opacity=".13" d="M7.72 696.36H2.538v5.173H7.72v-5.173z" fill="#fff"/><path opacity=".07" d="M21.883 696.36h-5.182v5.173h5.182v-5.173z" fill="#fff"/><path opacity=".02" d="M.638 710.328h-5.181v5.173H.638v-5.173zm7.082 0H2.538v5.173H7.72v-5.173z" fill="#fff"/><path opacity=".14" d="M14.802 710.328H9.62v5.173h5.182v-5.173z" fill="#fff"/><path opacity=".09" d="M.638 724.468h-5.181v5.174H.638v-5.174z" fill="#fff"/><path opacity=".02" d="M14.802 724.468H9.62v5.174h5.182v-5.174z" fill="#fff"/><path opacity=".19" d="M.638 731.539h-5.181v5.173H.638v-5.173z" fill="#fff"/><path opacity=".06" d="M14.802 731.539H9.62v5.173h5.182v-5.173z" fill="#fff"/><path opacity=".16" d="M.638 738.609h-5.181v5.173H.638v-5.173z" fill="#fff"/><path opacity=".04" d="M14.802 752.749H9.62v5.174h5.182v-5.174zm0 7.071H9.62v5.173h5.182v-5.173z" fill="#fff"/><path opacity=".18" d="M21.883 766.89h-5.182v5.173h5.182v-5.173z" fill="#fff"/><path opacity=".7" d="M36.219 651.007h-5.355v127.091h5.355V651.007zm9.154 0h-5.354v127.091h5.354V651.007zm9.327 0h-5.354v127.091H54.7V651.007zm9.327 0h-5.355v127.091h5.355V651.007zm9.327 0h-5.355v127.091h5.355V651.007z" fill="#E6E6E6"/><path d="M108.416 778.099H.984l107.432-93.465v93.465z" fill="#333"/><path d="M99.262 761.544H62.3v20.693h36.962v-20.693z" fill="#4D4D4D"/><path d="M96.498 756.716H65.063v9.657h31.435v-9.657z" fill="#4D4D4D"/><path d="M92.871 759.647H68.518l8.463-14.14h7.427l8.463 14.14z" fill="#4D4D4D"/><path d="M89.417 765.683H72.145v12.588h17.272v-12.588z" fill="#fff"/><path d="M91.49 770.684H70.071v2.586h21.417v-2.586z" fill="#4D4D4D"/><path d="M264.21 795.515c.518 13.451-9.845 25.005-23.49 25.522-13.472.517-25.045-10.002-25.563-23.452-.518-13.451 9.845-25.005 23.49-25.522 13.472-.517 24.872 10.002 25.563 23.452z" fill="#333"/><path d="M260.064 788.79c.346 7.76-5.699 14.313-13.472 14.658-7.772.345-14.335-5.691-14.681-13.451-.345-7.76 5.7-14.313 13.472-14.658 7.773-.345 14.336 5.691 14.681 13.451z" fill="#4D4D4D"/><path d="M17.565 770.166c0 3.277-2.764 6.036-6.045 6.036-3.282 0-6.045-2.759-6.045-6.036 0-3.276 2.763-6.035 6.045-6.035s6.045 2.586 6.045 6.035z" fill="#333"/><path d="M19.638 776.202a8.102 8.102 0 01-8.118 8.105 8.102 8.102 0 01-8.118-8.105 8.102 8.102 0 018.118-8.105 8.102 8.102 0 018.118 8.105z" fill="#333"/><path d="M15.492 764.993c0 2.242-1.727 4.139-3.972 4.139s-3.973-1.897-3.973-4.139 1.728-4.139 3.973-4.139 3.972 1.897 3.972 4.139z" fill="#333"/><path d="M16.701 770.166a3.462 3.462 0 01-3.454 3.449 3.462 3.462 0 01-3.454-3.449 3.462 3.462 0 013.454-3.449c1.9 0 3.454 1.552 3.454 3.449z" fill="#4D4D4D"/><path d="M14.974 765.51c0 1.38-1.209 2.587-2.59 2.587-1.382 0-2.591-1.207-2.591-2.587 0-1.379 1.209-2.587 2.59-2.587 1.382-.172 2.591 1.035 2.591 2.587z" fill="#4D4D4D"/><path d="M132.77 782.754c0 4.312-3.628 7.933-7.946 7.933s-7.945-3.621-7.945-7.933a7.918 7.918 0 017.945-7.932c4.318 0 7.946 3.621 7.946 7.932z" fill="#333"/><path d="M130.006 776.029c0 2.932-2.245 5.346-5.182 5.346-2.936 0-5.181-2.414-5.181-5.346 0-2.931 2.245-5.346 5.181-5.346 2.764 0 5.182 2.415 5.182 5.346z" fill="#333"/><path d="M129.315 776.546a3.461 3.461 0 01-3.454 3.449 3.462 3.462 0 01-3.455-3.449 3.462 3.462 0 013.455-3.449c1.9 0 3.454 1.552 3.454 3.449z" fill="#4D4D4D"/><path d="M122.061 788.618c-.864 8.277-8.291 14.14-16.408 13.278-8.291-.862-14.164-8.277-13.3-16.382.864-8.278 8.291-14.141 16.408-13.278 8.118.862 14.164 8.104 13.3 16.382z" fill="#333"/><path d="M118.261 775.34c-.518 5.518-5.354 9.657-10.881 9.139-5.355-.517-9.327-5.518-8.81-11.036.52-5.518 5.355-9.657 10.882-9.14 5.527.518 9.327 5.518 8.809 11.037z" fill="#333"/><path d="M116.879 776.374c-.345 3.622-3.627 6.208-7.081 5.863-3.627-.345-6.218-3.621-5.873-7.07.346-3.621 3.627-6.208 7.082-5.863 3.627.345 6.218 3.621 5.872 7.07z" fill="#4D4D4D"/><path d="M200.303 781.375c0 7.588-6.045 13.623-13.645 13.623s-13.645-6.035-13.645-13.623c0-7.588 6.045-13.623 13.645-13.623 7.427 0 13.645 6.035 13.645 13.623z" fill="#333"/><path d="M195.467 769.649c0 5.173-3.973 9.312-8.981 9.312-5.009 0-8.982-4.139-8.982-9.312 0-5.174 3.973-9.312 8.982-9.312 5.008.172 8.981 4.311 8.981 9.312z" fill="#333"/><path d="M198.231 781.375a7.918 7.918 0 01-7.946 7.932c-4.318 0-7.945-3.448-7.945-7.932a7.918 7.918 0 017.945-7.932c4.318.172 7.946 3.621 7.946 7.932z" fill="#4D4D4D"/><path d="M194.258 770.856c0 3.276-2.591 6.035-6.045 6.035-3.282 0-6.045-2.586-6.045-6.035 0-3.277 2.59-5.863 6.045-5.863 3.454-.173 6.045 2.586 6.045 5.863z" fill="#4D4D4D"/><path d="M170.077 792.756c0 9.657-7.945 17.589-17.617 17.589-9.673 0-17.618-7.932-17.618-17.589 0-9.657 7.945-17.589 17.618-17.589 9.672 0 17.617 7.76 17.617 17.589z" fill="#333"/><path d="M164.032 777.581c0 6.553-5.182 11.899-11.572 11.899-6.391 0-11.573-5.346-11.573-11.899 0-6.553 5.182-11.899 11.573-11.899 6.39 0 11.572 5.346 11.572 11.899z" fill="#333"/><path d="M162.477 779.133c0 4.311-3.454 7.588-7.772 7.588s-7.773-3.449-7.773-7.588a7.734 7.734 0 017.773-7.76 7.734 7.734 0 017.772 7.76z" fill="#4D4D4D"/><path d="M212.739 779.65c0 2.07-1.554 3.622-3.454 3.622-1.9 0-3.455-1.552-3.455-3.622 0-2.069 1.555-3.621 3.455-3.621 1.9 0 3.454 1.552 3.454 3.621zm74.27-4.31c0 6.725-5.355 12.071-12.091 12.071-6.736 0-12.09-5.346-12.09-12.071 0-6.726 5.354-12.072 12.09-12.072s12.091 5.346 12.091 12.072z" fill="#333"/><path d="M291.154 787.411c0 8.967-7.254 16.21-16.236 16.21-8.981 0-16.235-7.243-16.235-16.21s7.254-16.21 16.235-16.21c8.982 0 16.236 7.243 16.236 16.21z" fill="#333"/><path d="M282.864 764.993c0 4.484-3.628 8.277-7.946 8.277s-7.945-3.621-7.945-8.277c0-4.484 3.627-8.277 7.945-8.277 4.318 0 7.946 3.793 7.946 8.277z" fill="#333"/><path d="M285.109 775.34c0 3.793-3.109 6.897-6.909 6.897s-6.909-3.104-6.909-6.897c0-3.794 3.109-6.898 6.909-6.898s6.909 3.104 6.909 6.898z" fill="#4D4D4D"/><path d="M281.827 766.028c0 2.931-2.418 5.345-5.354 5.345s-5.354-2.414-5.354-5.345c0-2.932 2.418-5.346 5.354-5.346s5.354 2.414 5.354 5.346z" fill="#4D4D4D"/><path d="M332.089 790.515c0 8.967-7.254 16.209-16.236 16.209-8.981 0-16.236-7.242-16.236-16.209 0-8.967 7.255-16.21 16.236-16.21 8.982.172 16.236 7.415 16.236 16.21z" fill="#333"/><path d="M326.389 776.719c0 6.036-4.836 11.037-10.536 11.037-5.873 0-10.709-4.829-10.709-11.037 0-6.035 4.836-10.864 10.709-10.864 5.872 0 10.536 4.829 10.536 10.864z" fill="#333"/><path d="M325.007 778.099c0 3.966-3.109 7.07-7.081 7.07-3.973 0-7.082-3.104-7.082-7.07s3.109-7.07 7.082-7.07c3.972 0 7.081 3.104 7.081 7.07z" fill="#4D4D4D"/><path d="M596.351 797.068c0 14.83-11.918 26.729-26.772 26.729s-26.772-11.899-26.772-26.729c0-14.831 11.918-26.729 26.772-26.729s26.772 12.071 26.772 26.729z" fill="#333"/><path d="M592.378 789.653c0 8.449-6.909 15.347-15.372 15.347-8.463 0-15.372-6.898-15.372-15.347 0-8.45 6.909-15.348 15.372-15.348 8.463 0 15.372 6.898 15.372 15.348z" fill="#4D4D4D"/><path d="M630.722 785.514c0 12.416-10.19 22.59-22.626 22.59-12.436 0-22.627-10.174-22.627-22.59s10.191-22.59 22.627-22.59c12.608 0 22.626 10.001 22.626 22.59z" fill="#333"/><path d="M627.268 779.133c0 7.243-5.873 12.934-12.954 12.934-7.255 0-12.954-5.863-12.954-12.934 0-7.07 5.872-12.933 12.954-12.933 7.081 0 12.954 5.863 12.954 12.933z" fill="#4D4D4D"/><path d="M573.034 789.135c0 12.416-10.191 22.59-22.627 22.59-12.436 0-22.626-10.174-22.626-22.59s10.19-22.59 22.626-22.59c12.609 0 22.627 10.001 22.627 22.59z" fill="#333"/><path d="M569.579 782.755c0 7.242-5.872 12.933-12.954 12.933-7.081 0-12.954-5.863-12.954-12.933 0-7.243 5.873-12.934 12.954-12.934 7.082 0 12.954 5.691 12.954 12.934z" fill="#4D4D4D"/><path d="M503.255 794.309c0 12.416-10.191 22.59-22.627 22.59-12.436 0-22.626-10.174-22.626-22.59s10.19-22.59 22.626-22.59c12.609 0 22.627 10.174 22.627 22.59z" fill="#333"/><path d="M499.8 787.928c0 7.243-5.872 12.934-12.954 12.934-7.254 0-12.954-5.863-12.954-12.934 0-7.242 5.873-12.933 12.954-12.933 7.082 0 12.954 5.863 12.954 12.933z" fill="#4D4D4D"/><path d="M475.965 790.515c0 12.416-10.191 22.59-22.627 22.59-12.436 0-22.626-10.174-22.626-22.59s10.19-22.59 22.626-22.59c12.436 0 22.627 10.001 22.627 22.59z" fill="#333"/><path d="M472.51 784.134c0 7.243-5.872 12.934-12.954 12.934-7.254 0-12.954-5.863-12.954-12.934 0-7.242 5.873-12.933 12.954-12.933 7.082 0 12.954 5.691 12.954 12.933z" fill="#4D4D4D"/><path d="M493.582 786.893c0 7.243-5.872 12.933-12.954 12.933-7.254 0-12.954-5.863-12.954-12.933 0-7.243 5.873-12.933 12.954-12.933 7.254 0 12.954 5.863 12.954 12.933z" fill="#4D4D4D"/><path d="M397.032 787.928c0 8.105-6.564 14.83-14.854 14.83-8.118 0-14.854-6.553-14.854-14.83 0-8.105 6.563-14.831 14.854-14.831 8.29.173 14.854 6.726 14.854 14.831z" fill="#333"/><path d="M394.786 783.789c0 4.656-3.8 8.45-8.463 8.45-4.663 0-8.463-3.794-8.463-8.45 0-4.656 3.8-8.45 8.463-8.45 4.663 0 8.463 3.794 8.463 8.45z" fill="#4D4D4D"/><path d="M8.93 776.202c0 6.897-5.528 12.416-12.437 12.416s-12.436-5.519-12.436-12.416c0-6.898 5.527-12.416 12.436-12.416 6.736-.173 12.436 5.518 12.436 12.416z" fill="#333"/><path d="M13.074 788.618c0 9.312-7.427 16.727-16.754 16.727-9.326 0-16.753-7.415-16.753-16.727 0-9.312 7.427-16.727 16.753-16.727 9.327 0 16.754 7.415 16.754 16.727z" fill="#333"/><path d="M4.611 765.51c0 4.656-3.627 8.45-8.29 8.45-4.491 0-8.291-3.794-8.291-8.45 0-4.656 3.627-8.45 8.29-8.45 4.664 0 8.291 3.794 8.291 8.45z" fill="#333"/><path d="M7.029 776.201c0 3.967-3.282 7.243-7.254 7.243-3.973 0-7.254-3.276-7.254-7.243 0-3.966 3.281-7.242 7.254-7.242 3.972 0 7.254 3.276 7.254 7.242z" fill="#4D4D4D"/><path d="M3.575 766.545c0 2.931-2.418 5.518-5.527 5.518-2.937 0-5.527-2.414-5.527-5.518 0-2.932 2.418-5.518 5.527-5.518 2.936 0 5.527 2.414 5.527 5.518z" fill="#4D4D4D"/><path d="M67.827 781.03c0 5.519-4.491 10.002-10.018 10.002-5.527 0-10.018-4.483-10.018-10.002 0-5.518 4.49-10.001 10.018-10.001 5.527 0 10.018 4.483 10.018 10.001z" fill="#333"/><path d="M64.372 772.408c0 3.794-2.936 6.898-6.563 6.898s-6.563-3.104-6.563-6.898c0-3.794 2.936-6.898 6.563-6.898 3.627.173 6.563 3.104 6.563 6.898z" fill="#333"/><path d="M66.272 781.03c0 3.277-2.59 5.863-5.872 5.863s-5.873-2.586-5.873-5.863c0-3.104 2.591-5.69 5.873-5.69 3.281-.173 5.872 2.414 5.872 5.69z" fill="#4D4D4D"/><path d="M63.509 773.27c0 2.415-1.9 4.311-4.318 4.311-2.418 0-4.318-1.896-4.318-4.311 0-2.414 1.9-4.311 4.318-4.311 2.418-.172 4.318 1.897 4.318 4.311z" fill="#4D4D4D"/></g><defs><clipPath id="clip0_1_12798"><path fill="#fff" transform="translate(-398 .322)" d="M0 0h1127v776H0z"/></clipPath></defs></svg>